# Blender v2.82 (sub 7) OBJ File: ''
# www.blender.org
mtllib 5hoek.mtl
o Cube_Cube.003
v -1.070128 0.224808 0.598887
v -1.070128 1.000000 0.598887
v -0.765377 0.224808 -0.785450
v -0.765377 1.000000 -0.785450
v -0.152042 0.224808 0.527913
v -0.152042 1.000000 0.527913
v -0.345767 0.224808 -0.514173
v -0.345767 1.000000 -0.514173
v -1.412062 0.224808 -0.144474
v -1.412062 1.000000 -0.144474
v 0.014782 0.224808 -0.273622
v 0.014782 1.000000 -0.273622
vt 0.375000 0.125000
vt 0.625000 0.125000
vt 0.625000 0.250000
vt 0.375000 0.250000
vt 0.625000 0.500000
vt 0.375000 0.500000
vt 0.375000 0.625000
vt 0.625000 0.625000
vt 0.625000 0.750000
vt 0.375000 0.750000
vt 0.625000 1.000000
vt 0.375000 1.000000
vt 0.125000 0.625000
vt 0.125000 0.750000
vt 0.875000 0.625000
vt 0.875000 0.750000
vt 0.875000 0.500000
vt 0.125000 0.500000
vt 0.375000 0.000000
vt 0.625000 0.000000
vn -0.7040 0.0000 -0.7102
vn 0.5429 0.0000 -0.8398
vn 0.9790 0.0000 0.2038
vn 0.0771 0.0000 0.9970
vn 0.0000 -1.0000 0.0000
vn 0.0000 1.0000 0.0000
vn 0.5550 0.0000 -0.8319
vn -0.9085 0.0000 0.4179
usemtl None
s off
f 9/1/1 10/2/1 4/3/1 3/4/1
f 3/4/2 4/3/2 8/5/2 7/6/2
f 11/7/3 12/8/3 6/9/3 5/10/3
f 5/10/4 6/9/4 2/11/4 1/12/4
f 9/13/5 11/7/5 5/10/5 1/14/5
f 12/8/6 10/15/6 2/16/6 6/9/6
f 8/5/6 4/17/6 10/15/6 12/8/6
f 3/18/5 7/6/5 11/7/5 9/13/5
f 7/6/7 8/5/7 12/8/7 11/7/7
f 1/19/8 2/20/8 10/2/8 9/1/8
